<svg width="12" height="20" viewBox="0 0 12 20" fill="none" xmlns="http://www.w3.org/2000/svg">
<path d="M9.12505 19.1004L0.700048 10.7004C0.600048 10.6004 0.529382 10.4921 0.488049 10.3754C0.446049 10.2587 0.425049 10.1337 0.425049 10.0004C0.425049 9.86706 0.446049 9.74206 0.488049 9.62539C0.529382 9.50872 0.600048 9.40039 0.700048 9.30039L9.12505 0.875391C9.35838 0.642057 9.65005 0.525391 10 0.525391C10.35 0.525391 10.65 0.650391 10.9 0.900391C11.15 1.15039 11.275 1.44206 11.275 1.77539C11.275 2.10872 11.15 2.40039 10.9 2.65039L3.55005 10.0004L10.9 17.3504C11.1334 17.5837 11.25 17.8711 11.25 18.2124C11.25 18.5544 11.125 18.8504 10.875 19.1004C10.625 19.3504 10.3334 19.4754 10 19.4754C9.66672 19.4754 9.37505 19.3504 9.12505 19.1004Z" fill="#8B9EB0"/>
</svg>
