<svg width="12" height="20" viewBox="0 0 12 20" fill="none" xmlns="http://www.w3.org/2000/svg">
<path d="M2.87495 0.899609L11.3 9.29961C11.4 9.39961 11.4706 9.50794 11.512 9.62461C11.554 9.74128 11.575 9.86628 11.575 9.99961C11.575 10.1329 11.554 10.2579 11.512 10.3746C11.4706 10.4913 11.4 10.5996 11.3 10.6996L2.87495 19.1246C2.64162 19.3579 2.34995 19.4746 1.99995 19.4746C1.64995 19.4746 1.34995 19.3496 1.09995 19.0996C0.849952 18.8496 0.724952 18.5579 0.724952 18.2246C0.724952 17.8913 0.849952 17.5996 1.09995 17.3496L8.44995 9.99961L1.09995 2.64961C0.866618 2.41628 0.749951 2.12894 0.749951 1.78761C0.749951 1.44561 0.874951 1.14961 1.12495 0.899609C1.37495 0.649609 1.66662 0.524609 1.99995 0.524609C2.33328 0.524609 2.62495 0.649609 2.87495 0.899609Z" fill="#8B9EB0"/>
</svg>
