<svg width="184" height="178" viewBox="0 0 184 178" fill="none" xmlns="http://www.w3.org/2000/svg">
<path id="Union" fill-rule="evenodd" clip-rule="evenodd" d="M60.7466 39.6128C57.4143 36.3279 57.4143 31.0019 60.7466 27.717L85.5471 3.26876C88.8794 -0.0161831 94.2821 -0.0161831 97.6143 3.26876L122.415 27.717C125.747 31.0019 125.747 36.3279 122.415 39.6128L97.6143 64.0611C94.2821 67.346 88.8794 67.346 85.5471 64.0611L60.7466 39.6128ZM87.0332 92.3957C85.3671 90.7532 85.3671 88.0902 87.0332 86.4478L88.6804 84.824C90.3465 83.1815 93.0478 83.1815 94.714 84.824L96.3611 86.4478C98.0273 88.0902 98.0273 90.7532 96.3611 92.3957L94.714 94.0194C93.0478 95.6619 90.3465 95.6619 88.6804 94.0194L87.0332 92.3957ZM119.276 83.5997C115.943 86.8846 115.943 92.2106 119.276 95.4955L144.076 119.944C147.408 123.229 152.811 123.229 156.143 119.944L180.944 95.4955C184.276 92.2106 184.276 86.8846 180.944 83.5997L156.143 59.1515C152.811 55.8665 147.408 55.8665 144.076 59.1515L119.276 83.5997ZM2.58014 95.4327C-0.752137 92.1478 -0.752137 86.8218 2.58014 83.5369L27.3806 59.0886C30.7129 55.8037 36.1156 55.8037 39.4479 59.0886L64.2483 83.5369C67.5806 86.8218 67.5806 92.1478 64.2483 95.4327L39.4479 119.881C36.1156 123.166 30.7129 123.166 27.3806 119.881L2.58014 95.4327ZM60.7466 139.085C57.4143 142.37 57.4143 147.696 60.7466 150.981L85.5471 175.429C88.8794 178.714 94.2821 178.714 97.6143 175.429L122.415 150.981C125.747 147.696 125.747 142.37 122.415 139.085L97.6143 114.637C94.2821 111.352 88.8794 111.352 85.5471 114.637L60.7466 139.085Z" fill="white"/>
</svg>
